<?xml version="1.0" encoding="UTF-8"?>
<svg xmlns="http://www.w3.org/2000/svg" xmlns:xlink="http://www.w3.org/1999/xlink" width="52px" height="52px" viewBox="0 0 52 52" version="1.1">
  <title>Group 37 Copy</title>
  <g id="Homepage" stroke="none" stroke-width="1" fill="none" fill-rule="evenodd">
    <g id="Homepage---R1" transform="translate(-859.000000, -6372.000000)" stroke="#FFFFFF" stroke-width="1.5">
      <g id="Group-37-Copy" transform="translate(860.000000, 6373.059325)">
        <path d="M19.9914957,30.0085387 C17.2255276,27.2422271 17.2255276,22.7575325 19.9914957,19.9915644 C22.7578073,17.2255962 27.2425019,17.2255962 30.00847,19.9915644 C32.7744381,22.7575325 32.7744381,27.2422271 30.00847,30.0085387 C27.2425019,32.7745068 22.7578073,32.7745068 19.9914957,30.0085387 Z" id="Stroke-1"></path>
        <polyline id="Stroke-3" stroke-linecap="round" points="21.1610128 25.8598613 23.1469594 27.8458078 28.8389529 22.1541578"></polyline>
        <path d="M46.8137957,21.9809113 C46.2889727,18.1539627 44.7807937,14.6402593 42.5523569,11.7032428" id="Stroke-5"></path>
        <path d="M42.5589172,38.2882047 C44.7835758,35.3529057 46.2893506,31.8422934 46.81383,28.0191231" id="Stroke-7"></path>
        <path d="M28.0172683,46.8140361 C31.8507428,46.2888697 35.3695983,44.776569 38.3100495,42.5422932" id="Stroke-9"></path>
        <path d="M11.6859319,42.5392707 C14.6191702,44.7694248 18.1290955,46.2803516 21.9522658,46.8099832" id="Stroke-11"></path>
        <path d="M3.18239178,27.990615 C3.70274962,31.8220287 5.20852439,35.3401972 7.4362742,38.2816788" id="Stroke-13"></path>
        <path d="M7.44922304,11.7011133 C5.22456446,14.6322908 3.71775928,18.1377509 3.18984509,21.9561127" id="Stroke-15"></path>
        <path d="M21.9845864,3.18575779 C18.1421817,3.71195463 14.6154264,5.22975087 11.6708536,7.47226991" id="Stroke-17"></path>
        <path d="M38.2968945,7.44767742 C35.3519783,5.21340167 31.8276273,3.70316178 27.9886572,3.182117" id="Stroke-19"></path>
        <path d="M27.9811009,2.98098066 C27.9811009,4.62723488 26.6463744,5.96196133 25.0001202,5.96196133 C23.3535225,5.96196133 22.0187961,4.62723488 22.0187961,2.98098066 C22.0187961,1.33472645 23.3535225,0 25.0001202,0 C26.6463744,0 27.9811009,1.33472645 27.9811009,2.98098066 Z" id="Stroke-21"></path>
        <path d="M11.5382053,7.32224198 C12.7022269,8.48660705 12.7022269,10.3739776 11.5382053,11.5379992 C10.3738402,12.7023642 8.48646967,12.7023642 7.32244807,11.5379992 C6.15808299,10.3739776 6.15808299,8.48660705 7.32244807,7.32224198 C8.48646967,6.15822038 10.3738402,6.15822038 11.5382053,7.32224198 Z" id="Stroke-23"></path>
        <path d="M22.0188991,47.0190537 C22.0188991,45.3727995 23.3536256,44.038073 24.9998798,44.038073 C26.6464775,44.038073 27.9812039,45.3727995 27.9812039,47.0190537 C27.9812039,48.6653079 26.6464775,50.0000343 24.9998798,50.0000343 C23.3536256,50.0000343 22.0188991,48.6653079 22.0188991,47.0190537 Z" id="Stroke-25"></path>
        <path d="M38.4618291,42.677758 C37.2978075,41.5137364 37.2978075,39.6260224 38.4618291,38.4620008 C39.6261942,37.2976358 41.5135647,37.2976358 42.6775863,38.4620008 C43.8419514,39.6260224 43.8419514,41.5137364 42.6775863,42.677758 C41.5135647,43.8417796 39.6261942,43.8417796 38.4618291,42.677758 Z" id="Stroke-27"></path>
        <path d="M47.0190193,27.9811352 C45.3727651,27.9811352 44.0380387,26.6464088 44.0380387,25.0001546 C44.0380387,23.3535569 45.3727651,22.0188304 47.0190193,22.0188304 C48.6652736,22.0188304 50,23.3535569 50,25.0001546 C50,26.6464088 48.6652736,27.9811352 47.0190193,27.9811352 Z" id="Stroke-29"></path>
        <path d="M42.677758,11.5381709 C41.5137364,12.7021925 39.6260224,12.7021925 38.4620008,11.5381709 C37.2976358,10.3741493 37.2976358,8.48643532 38.4620008,7.32241372 C39.6260224,6.15804865 41.5137364,6.15804865 42.677758,7.32241372 C43.8417796,8.48643532 43.8417796,10.3741493 42.677758,11.5381709 Z" id="Stroke-31"></path>
        <path d="M2.98098066,22.0188991 C4.62723488,22.0188991 5.96196133,23.3536256 5.96196133,24.9998798 C5.96196133,26.6464775 4.62723488,27.9812039 2.98098066,27.9812039 C1.33472645,27.9812039 6.10126211e-16,26.6464775 6.10126211e-16,24.9998798 C6.10126211e-16,23.3536256 1.33472645,22.0188991 2.98098066,22.0188991 Z" id="Stroke-33"></path>
        <path d="M6.44917426,40.5698451 C6.44917426,38.9235909 7.78390071,37.5888644 9.43015493,37.5888644 C11.0767526,37.5888644 12.4114791,38.9235909 12.4114791,40.5698451 C12.4111356,42.2160993 11.0767526,43.5508257 9.43015493,43.5508257 C7.78390071,43.5508257 6.44917426,42.2160993 6.44917426,40.5698451 Z" id="Stroke-35"></path>
      </g>
    </g>
  </g>
</svg>
