<?xml version="1.0" encoding="UTF-8"?>
<svg xmlns="http://www.w3.org/2000/svg" xmlns:xlink="http://www.w3.org/1999/xlink" width="52px" height="54px" viewBox="0 0 52 54" version="1.1">
  <title>Group 27</title>
  <g id="Homepage" stroke="none" stroke-width="1" fill="none" fill-rule="evenodd">
    <g id="Homepage---R1" transform="translate(-1254.000000, -6143.000000)" stroke="#FFFFFF" stroke-width="1.5">
      <g id="Group-27" transform="translate(1255.000000, 6144.041832)">
        <polyline id="Stroke-1" points="7.84617741 23.2389959 7.84617741 19.7465394 7.84617741 14.3696865"></polyline>
        <line x1="43.2210303" y1="25.4832232" x2="43.2210303" y2="24.7357095" id="Stroke-2"></line>
        <polygon id="Stroke-3" points="10.5819714 15.6912307 2.21863173e-15 10.5819714 5.10894708 0 15.6912307 5.10894708"></polygon>
        <polyline id="Stroke-5" points="25.7134724 28.7327846 25.7134724 24.7807039 25.7134724 20.1738463"></polyline>
        <g id="Group-10" transform="translate(7.690055, 37.020694)">
          <polyline id="Stroke-6" points="18.0234173 6.27249557 18.0234173 9.86549483 18.0234173 14.9966113"></polyline>
          <polyline id="Stroke-8" points="0.156122328 14.9967986 0.156122328 4.8301126 0.156122328 0"></polyline>
        </g>
        <line x1="7.84617741" y1="23.9730207" x2="7.84617741" y2="23.2389335" id="Stroke-11"></line>
        <polyline id="Stroke-12" points="43.2210303 34.2430285 43.2210303 29.9118828 43.2210303 25.4833169"></polyline>
        <polyline id="Stroke-13" points="43.2483517 29.9120389 34.3674892 29.9120389 34.3674892 24.7812347 17.1062923 24.7812347 17.1062923 19.7459774 7.84542802 19.7459774"></polyline>
        <g id="Group-26" transform="translate(0.000000, 5.618973)">
          <polyline id="Stroke-14" points="43.2210303 42.1885571 43.2210303 46.387311 43.2213425 46.3982395 34.3673331 46.3982395 34.3673331 41.2674353 17.1061362 41.2674353 17.1061362 36.232178 7.84558415 36.232178"></polyline>
          <path d="M32.2779479,9.15044951 C31.983189,9.47299824 31.5791444,9.8489408 31.0292816,10.3600853 L28.3973713,12.8068344 C27.8471963,13.3179789 27.4431517,13.6936093 27.0999948,13.9640131 C26.7583991,14.233168 26.490181,14.3874169 26.2166547,14.4654781 C25.7136285,14.6091106 25.1781289,14.5894392 24.6869681,14.4098985 C24.4196867,14.3118537 24.163646,14.1385579 23.8423463,13.8453602 C23.5201098,13.5506012 23.1444795,13.1465566 22.6330227,12.5963815 L20.1862736,9.96478357 C19.6751291,9.41492073 19.2994988,9.0105639 19.0290949,8.66740702 C18.75994,8.32581137 18.6056911,8.05790545 18.52763,7.78406689 C18.3843097,7.28104075 18.4036689,6.74554116 18.5832095,6.25438031 C18.6812544,5.98709889 18.8545501,5.73105827 19.1477479,5.41007076 C19.4425068,5.08752203 19.8462392,4.71157946 20.3967265,4.20043496 L23.0283245,1.75368583 C23.5784996,1.24254133 23.9822319,0.866911005 24.325701,0.596507132 C24.6672967,0.327352237 24.9352026,0.173103377 25.2090411,0.0950422128 C25.7120673,-0.0485903294 26.2472546,-0.028918916 26.7384155,0.150621762 C27.0060091,0.248666584 27.2620498,0.421650124 27.5830373,0.715160101 C27.905586,1.00991906 28.2812163,1.41396364 28.7926731,1.96413873 L31.23911,4.5957367 C31.7505667,5.14559954 32.126197,5.54995637 32.3966009,5.89311325 C32.6657558,6.2347089 32.8200047,6.50261482 32.8980658,6.77645338 C33.0416984,7.27947952 33.022027,7.81497911 32.8424863,8.30582771 C32.7447537,8.57342138 32.5711457,8.829462 32.2779479,9.15044951 Z" id="Stroke-16"></path>
          <path d="M45.5273318,18.7106003 C42.0080223,19.9848707 38.1218253,18.1613619 36.8488038,14.6414279 C35.5757823,11.1211817 37.3958564,7.23154997 40.9154782,5.95696728 C44.4347877,4.68269683 48.3209847,6.50620563 49.5940062,10.0264519 C50.8670277,13.5463859 49.0466413,17.4363298 45.5273318,18.7106003 Z" id="Stroke-18"></path>
          <polygon id="Stroke-20" points="10.5819714 32.7239219 2.21863173e-15 27.6146626 5.10894708 17.0326912 15.6912307 22.1416383"></polygon>
          <path d="M32.2779479,32.2642353 C31.983189,32.5867841 31.5791444,32.9624144 31.0292816,33.4738711 L28.3973713,35.920308 C27.8471963,36.4317648 27.4431517,36.8073951 27.0999948,37.077799 C26.7583991,37.3469539 26.490181,37.5012027 26.2166547,37.5792639 C25.7136285,37.7228964 25.1781289,37.703225 24.6869681,37.5233721 C24.4196867,37.4256395 24.163646,37.2523437 23.8423463,36.959146 C23.5201098,36.664387 23.1444795,36.2603425 22.6330227,35.7101674 L20.1862736,33.0785694 C19.6751291,32.5283943 19.2994988,32.1243497 19.0290949,31.7811929 C18.75994,31.4395972 18.6056911,31.171379 18.52763,30.8978527 C18.3843097,30.3948266 18.4036689,29.859327 18.5832095,29.3681661 C18.6812544,29.1005725 18.8545501,28.8448441 19.1477479,28.5238566 C19.4425068,28.2013079 19.8462392,27.8253653 20.3967265,27.3139085 L23.0283245,24.8674717 C23.5784996,24.3563272 23.9822319,23.9803846 24.325701,23.710293 C24.6672967,23.4408258 24.9352026,23.2868892 25.2090411,23.208828 C25.7120673,23.0651955 26.2472546,23.0848669 26.7384155,23.2644076 C27.0060091,23.3624524 27.2620498,23.535436 27.5830373,23.8286337 C27.905586,24.1237049 28.2812163,24.5277495 28.7926731,25.0779246 L31.23911,27.7092103 C31.7505667,28.2593854 32.126197,28.66343 32.3966009,29.0068991 C32.6657558,29.3484947 32.8200047,29.6164006 32.8980658,29.8902392 C33.0416984,30.3932654 33.022027,30.9284527 32.8424863,31.4196135 C32.7447537,31.6872072 32.5711457,31.9432478 32.2779479,32.2642353 Z" id="Stroke-22"></path>
          <path d="M45.5273318,41.7830449 C42.0080223,43.0573154 38.1218253,41.2338066 36.8488038,37.7138726 C35.5757823,34.1936263 37.3958564,30.3039946 40.9154782,29.0294119 C44.4347877,27.7551415 48.3209847,29.5786503 49.5940062,33.0988965 C50.8670277,36.6191428 49.0466413,40.5087745 45.5273318,41.7830449 Z" id="Stroke-24"></path>
        </g>
      </g>
    </g>
  </g>
</svg>
