<?xml version="1.0" encoding="UTF-8"?>
<svg xmlns="http://www.w3.org/2000/svg" xmlns:xlink="http://www.w3.org/1999/xlink" width="73px" height="52px" viewBox="0 0 73 52" version="1.1">
  <title>Group 65 Copy</title>
  <g id="Homepage" stroke="none" stroke-width="1" fill="none" fill-rule="evenodd">
    <g id="Homepage---R1" transform="translate(-1254.000000, -6372.000000)" stroke="#FFFFFF" stroke-width="1.5">
      <g id="Group-65-Copy" transform="translate(1255.000000, 6373.059359)">
        <path d="M35.2641449,7.53113368 C36.946861,6.56283526 38.7873949,5.82904346 40.7320643,5.37456075" id="Stroke-1"></path>
        <path d="M35.2641449,7.53113368 C33.5822359,6.56283526 31.7417021,5.82904346 29.7966291,5.37456075" id="Stroke-3"></path>
        <path d="M20.4130142,44.6172456 C20.4396535,44.4311741 20.4771907,44.2487352 20.5252222,44.0703326" id="Stroke-5"></path>
        <path d="M29.7967905,44.6258429 C31.7418635,44.1721674 33.5819938,43.4391829 35.2643063,42.4708844" id="Stroke-7"></path>
        <path d="M35.2641449,42.470723 C36.946861,43.4390214 38.7873949,44.172006 40.7320643,44.6256814" id="Stroke-9"></path>
        <path d="M4.72565147,29.7097284 C7.3350926,29.7097284 9.45049569,27.601187 9.45049569,24.9998184 C9.45049569,22.3996606 7.3350926,20.2903119 4.72565147,20.2903119 C2.11540309,20.2903119 0,22.3996606 0,24.9998184 C0,27.601187 2.11540309,29.7097284 4.72565147,29.7097284 Z" id="Stroke-19"></path>
        <path d="M45.4439925,9.4194165 C48.0542409,9.4194165 50.1704512,7.31087505 50.1704512,4.70950644 C50.1704512,2.1077342 48.0542409,0 45.4439925,0 C42.8337441,0 40.718341,2.1077342 40.718341,4.70950644 C40.718341,7.31087505 42.8337441,9.4194165 45.4439925,9.4194165 Z" id="Stroke-21"></path>
        <line x1="60.9876644" y1="25.00111" x2="50.1704916" y2="25.00111" id="Stroke-23"></line>
        <path d="M20.4972913,23.888596 C17.2198494,22.2200068 14.9756896,18.8287424 14.9756896,14.9176079 C14.9756896,10.9943646 17.2323618,7.59543128 20.5251415,5.93087827" id="Stroke-25"></path>
        <path d="M50.0043188,44.0701308 C53.2970985,42.4059814 55.553367,39.0074517 55.553367,35.0834012 C55.553367,31.1722667 53.3096109,27.7822132 50.032169,26.1128167" id="Stroke-27"></path>
        <path d="M25.6695951,20.3298673 C26.9700776,14.8724421 30.5078582,10.2686857 35.2641852,7.53129513" id="Stroke-29"></path>
        <path d="M35.2641449,7.53113368 C40.0204719,10.2689278 43.5590597,14.8722807 44.8595422,20.3297058" id="Stroke-31"></path>
        <path d="M20.5251818,44.0704941 C17.2319985,42.4063447 14.97573,39.007815 14.97573,35.0833608 C14.97573,31.1718227 17.2198897,27.7817692 20.4973316,26.1127763" id="Stroke-33"></path>
        <line x1="29.8308566" y1="25.00111" x2="40.698079" y2="25.00111" id="Stroke-35"></line>
        <path d="M44.8597441,29.6699309 C43.5596652,35.1281633 40.0210773,39.7319198 35.2643467,42.4705212" id="Stroke-37"></path>
        <path d="M65.1510247,29.6596385 C63.3972704,37.0488169 57.5483281,42.8662763 50.116769,44.6172053" id="Stroke-39"></path>
        <line x1="20.359332" y1="25.00111" x2="9.54215912" y2="25.00111" id="Stroke-41"></line>
        <path d="M50.0853265,5.37464148 C57.5318198,7.11669066 63.3940817,12.9418189 65.1506614,20.3406844" id="Stroke-43"></path>
        <path d="M20.4130142,5.38287545 C12.9774187,7.13501527 7.12605478,12.9581254 5.37512583,20.3517438" id="Stroke-45"></path>
        <path d="M25.6692318,29.6699309 C26.9693107,35.1281633 30.5074949,39.7319198 35.2642256,42.4705212" id="Stroke-47"></path>
        <path d="M20.4130142,44.6172456 C12.9774187,42.8659131 7.12605478,37.0436102 5.37512583,29.6491846" id="Stroke-49"></path>
        <path d="M50.0323304,23.8882731 C53.3097723,22.2196839 55.5535285,18.8288231 55.5535285,14.9176886 C55.5535285,10.9879873 53.2899947,7.58421048 49.9883352,5.92207922" id="Stroke-51"></path>
        <path d="M20.359332,25.00111 L20.359332,24.9998991 C20.359332,24.6164545 20.4105924,24.2455224 20.497372,23.8887171 C20.9990789,21.8249781 22.8593905,20.2903927 25.0845798,20.2903927 C25.2831637,20.2903927 25.4777114,20.3065377 25.6694337,20.329948 C28.0027947,20.6177332 29.8102313,22.5971144 29.8102313,24.9998991 C29.8102313,27.403491 28.0027947,29.3824686 25.6694337,29.6698502 C25.4773078,29.6936641 25.2831637,29.7098092 25.0845798,29.7098092 C22.8597941,29.7098092 20.9994826,28.1760309 20.497372,26.1126956 C20.4105924,25.7554867 20.359332,25.3845545 20.359332,25.00111 Z" id="Stroke-53"></path>
        <path d="M65.1510247,29.6596385 C62.850761,29.3419849 61.0784398,27.3799597 61.0784398,25.0001816 C61.0784398,22.6208072 62.8503573,20.6579747 65.1506211,20.3407248 C65.3645428,20.3108565 65.5816935,20.2902716 65.8040913,20.2902716 C68.4143397,20.2902716 70.5293392,22.3992166 70.5293392,25.0001816 C70.5293392,27.6011466 68.4143397,29.7096881 65.8040913,29.7096881 C65.5816935,29.7096881 65.3649464,29.6891032 65.1510247,29.6596385 Z" id="Stroke-55"></path>
        <path d="M50.1703301,25.00111 C50.1703301,25.3849582 50.1190696,25.7558903 50.0322901,26.1130992 C49.5297759,28.1760309 47.6690607,29.7098092 45.4438714,29.7098092 C45.2456911,29.7098092 45.0515471,29.6936641 44.8598248,29.6698502 C42.5256565,29.3824686 40.7182199,27.403491 40.7182199,24.9998991 C40.7182199,22.5971144 42.5256565,20.6173296 44.8594212,20.329948 C45.0515471,20.3065377 45.2456911,20.2903927 45.4438714,20.2903927 C47.6694643,20.2903927 49.5301795,21.8249781 50.0322901,23.8883135 C50.1190696,24.2455224 50.1703301,24.6164545 50.1703301,24.9998991 L50.1703301,25.00111 Z" id="Stroke-57"></path>
        <path d="M20.4130142,5.38287545 C20.3815314,5.16249573 20.359332,4.93888701 20.359332,4.70962753 C20.359332,2.10785529 22.4743314,0.000121087756 25.0845798,0.000121087756 C27.6944246,0.000121087756 29.8102313,2.10785529 29.8102313,4.70962753 C29.8102313,7.31099614 27.6944246,9.41953759 25.0845798,9.41953759 C22.8989458,9.41953759 21.0656772,7.93903797 20.5252222,5.93059573 C20.4771907,5.7521931 20.4396535,5.56935059 20.4130142,5.38287545 Z" id="Stroke-59"></path>
        <path d="M20.4130142,44.6172456 C20.3815314,44.8376254 20.359332,45.0612341 20.359332,45.2904936 C20.359332,47.8914586 22.4743314,50 25.0845798,50 C27.6944246,50 29.8102313,47.8914586 29.8102313,45.2904936 C29.8102313,42.6899322 27.6944246,40.5805835 25.0845798,40.5805835 C22.8985422,40.5805835 21.0652736,42.062294 20.5252222,44.0703326" id="Stroke-61"></path>
        <path d="M50.1166479,44.6172456 C50.0900086,44.4311741 50.0524714,44.2487352 50.0044399,44.069929 C49.4643885,42.0618904 47.6303126,40.5805835 45.4438714,40.5805835 C42.833623,40.5805835 40.7182199,42.6899322 40.7182199,45.2904936 C40.7182199,47.8914586 42.833623,50 45.4438714,50 C48.0545234,50 50.1703301,47.8914586 50.1703301,45.2904936 C50.1703301,45.0612341 50.1481307,44.8376254 50.1166479,44.6172456 Z" id="Stroke-63"></path>
      </g>
    </g>
  </g>
</svg>
